<?xml version="1.0" encoding="UTF-8"?>
<svg id="Layer_1" data-name="Layer 1" xmlns="http://www.w3.org/2000/svg" viewBox="0 0 457.99 71.9">
  <path d="M47.11,5.66c.29-.14.73-.62,1.07-.41.53.33.56,2.79.32,3.11-2.89,3.73-6.55,8.23-9.65,11.85-2.13,2.49-4.56,5.17-6.68,7.67l-4.71,5.79-5.45,6.46c-3.97,1.64-17.66,7.72-20.06,12.24-.18.33-.52.85-.15,1.17.26.12,1.98-1.84,2.3-2.14,3.27-3.09,7.59-5.87,12.12-6.57,7.08-1.1,14.25,3.47,20.82,5.36,4.19,1.21,8.03-.57,8.14-5.26,0-.42-.22-1.51.04-1.77.44-.44.73.59.8.84,1.99,6.37-3.27,12.55-9.12,14.28-4.31,1.27-8.48-1.45-12.33-3.09-4.64-1.98-13.88-6.34-18.3-2.28-2.73,2.51-.55,8.22,3.82,5.86.23-.13.94-.81,1.19-.46.34.49-.88,1.73-1.23,2.06-3.57,3.31-9.2,2.42-9.95-2.84-.67-4.71,2.56-9.82,5.21-13.46,3.28-4.51,7.07-8.63,10.77-12.79l5.33-5.62,4.19-4.26c2.28-2.32,4.98-4.8,7.13-7.21.11-.13.77-.84.65-.94-.63,0-1.17.49-1.75.75-2.84,1.29-6.13,1.4-9.2,1.21-6.34-.38-12.33-2.75-16.07,4.1-.18.33-.29,1.07-.81.99-.19-.03-.27-.21-.29-.38-.1-.94,1.41-4.54,1.85-5.6,1.92-4.67,3.29-7.42,9.02-7.14,3.94.2,7.52.18,11.5.61,1.04.11,4.25-.05,5.23-.41l14.27-1.7Z"/>
  <g>
    <path d="M249.87.11c5.11-.36,13.24,1,16.07,5.76.24.4.24,1.02.64,1.37.1,0,.96-1.44,1.09-1.67.18-.32.21-.72.42-1.09,1.43-2.44,5.3-4.24,8.05-4.41,4.55-.28,9.49,1.76,12,5.61,1.05,1.61,1.8,4.58,1.78,6.51-.02,1.78-1.11,4.6-.41,6.2.03.07.61.94.65.98.63.61,3.05.14,3.97.31,1.19.23-.18,1.5-1.14,1.62-2.49.32-6.25.04-8.56-.99-.38-.17-.56-.58-1-.63-.87.58-1.49,1.17-1.43,2.3.05,1.07.59,1.03,1.13,1.77,3,1.62,6.44,2.89,8.61,5.74,3.72,4.88,1.77,11.53-1.62,15.97-4.35,5.7-11.51,10.15-18.89,10.44-11.18.43-14.43-5.27-22.16-11.45-1.99-1.59-4.2-3.08-6.92-2.77-.77.09-2.16,1.26-2.64,1.89-.54.71-.77,1.51-1.1,2.29-.28.65-.66,1-1.17,1.47-.61-.48-.48-1.13-.28-1.79,1.76-5.75,5.81-10.09,11.99-10.91,1.43-.19,3.41.15,4.19-1.34.62-1.17.6-3.24.8-4.61.88-6.21.85-11.67-.3-17.84-.66-3.51-3.35-6.97-6.92-7.81-2.79-.65-6.76,1.72-6.12,4.85.57,2.75,3.96,3.96,5.97,5.35,6.43,4.45,5.6,13.15-.78,17.25-.21.13-.33.4-.6.53-1.6.78-6.12,1.96-7.84,1.74-.8-.1-.55-1.11-.18-1.32.54-.31,2.1-.23,2.89-.51.49-.17,1.73-.65,2.15-.87.15-.08,1.3-.82,1.37-.89.6-.55.59-1.92.24-2.62-.52-1.05-3.72-2.73-4.83-3.6-.99-.78-3.31-2.92-3.87-3.94-3.06-5.62.72-13.06,5.85-16.09,2.17-1.28,6.35-2.65,8.88-2.83ZM278.51,37c-2.34-1.64-5.32-4.18-6.05-7.1-1.37-5.48,3.31-8.16,7.45-10.09.5-.23,1.12-.15,1.45-.69-1.57-1.28-3.28-1.97-4.38-3.79-1.84-3.04-.83-5.13-1.02-8.28-.07-1.11-.35-1.75-1.07-2.58-.92-1.06-2.65-1.33-3.78-.5-1.29.94-2.22,3.01-2.33,4.58-.55,7.31,1.76,15.12-4.53,20.63-2.25,1.97-5.68,3.71-8.43,4.78-.16.06-.56.14-.51.37.07.15,1.56.85,1.82.95,5.27,1.9,7.87,4.03,12.08,7.55s9.85,10.62,15.67,5.21c2.7-2.51,2.32-4.84-.43-7.1-1.83-1.5-4.05-2.61-5.94-3.94Z"/>
    <path d="M191.2.11c.99-.06,3.24-.2,4.11-.03.21.04.57.31.55.54-.1.29-.31.55-.61.66-1.12.39-3.1.31-4.12.79-.2.09-.33.31-.5.39-2.11,1-2.94,1.74-3.2,4.23l.02,15.33c.86.78,1.16.05,1.75-.35,2.98-2.02,5.84-4.18,8.76-6.22.56-.39,1.24-.67,1.78-1.13.89-.18,1.66.93,2.17,1.55,1.57,1.91,2.77,4.03,3.6,6.34.33,9.46.24,19.01.04,28.48-.55,1.17-.57,2.69-.95,3.83-2.74,8.06-12.34,14.05-19.8,17.19-.61.25-1.75.41-2.14-.25.8-.94,2.15-1.14,3.13-1.64,4.2-2.13,7.17-6.07,8.03-10.72.65-11.04.13-22.19.27-33.27-.43-1.71-.93-4.03-3.26-3.41-.11.03-1.69.88-1.8.96-.13.1-1.05.86-1.09.92-.09.12-.46.98-.49,1.14v19.47c.13,1.13.65,2.59,1.88,2.91.52.14,2.26-.16,2.27.49-.19.91-1.22,1.08-1.81,1.47-1.6,1.05-3.43,2.42-4.93,3.63-.39.32-2.54,2.39-2.77,2.39-.35-.23-.77-.55-1.07-.82-2.24-1.99-4.11-3.56-6.71-5.12-.37-.22-.89-.28-1.21-.55-.15-.13-.8-.89-.71-1.06.32-.59,1.36-.42,1.84-.56.13-.04.89-.52,1.01-.63.54-.51.57-1.58.75-2.27v-28.42c-.42-3.76-1.51-7.39-3.54-10.54-.34-.53-2.01-2.07-.67-2.11.68-.02,1.22.73,1.63,1.28.88,1.16,1.41,2.58,2.16,3.75.1.15.23.27.37.38.2,0,1.21-2.16,1.47-2.55,2.77-4.17,8.99-6.18,13.8-6.46Z"/>
    <path d="M456.71,22.81c-.13.08-.56-.01-.79.03-1.17.22-2.25.39-3.03,1.38-.26.33-.54,2.52-.58,3.07-.32,5.16.25,10.65,0,15.85.24,2.05.4,4.19,3.06,3.8.77-.11,1.43-.82,2.06-.85.31-.01.62.22.54.54-.06.22-1.35,1.15-1.63,1.4-1.99,1.81-4.14,3.56-6.23,5.35-.81.69-1.55,1.59-2.46,2.19-1.29.85-1.64-.29-2.7-.81-2.61-2.48-3.9-4.7-4.09-8.36-.37-6.8.29-13.92,0-20.75-.45-2.01-.66-3.17-3.02-2.64-.9.2-2.86,1.29-3.01,2.27v20.11c.11.36.07.82.21,1.16.41.96,2.73,1.6.7,2.78-.46.27-1.06.26-1.52.5-.9.47-1.86,1.23-2.75,1.78-1.15,1.2-2.26,2.42-2.97,3.95-.06.13-.15.21-.3.21-.26,0-1.88-2.15-2.26-2.53-1.22-1.2-3.24-2.69-4.76-3.41-.66-.32-1.69-.3-2.09-1.06-.57-1.09.69-.85,1.34-1.01.16-.04,1.69-.78,1.78-.86.51-.43.97-2.33,1.02-3.01.37-5.64-.28-11.68,0-17.36-.09-.84-.97-2.9-1.79-3.24-1.58-.64-2.34,1-3.81,1.13l-.3-.89c1.51-1.52,3.18-2.86,4.76-4.31s3.04-2.82,4.61-4.2c.52-.46.41-.96,1.48-.47,1.68.76,4.57,2.98,5.49,4.58.37.64.94,3.29,1.61,3.42.14.03.76-.32.92-.43,3.43-2.27,6.63-4.99,10.14-7.09.46-.28.66-.88,1.52-.39.55.32,1.97,2.23,2.59,2.82,1.31,1.27,3.56,3.1,5.2,3.73.41.16,1.55.07,1.44.78,0,.05-.34.8-.38.83Z"/>
    <path d="M91.48,14.43c.89-.31,1.12.31,1.63.59,2.96,1.6,4.47,2.88,5.72,6.11.21.54.18,1.24.69,1.7.55-.39,1.16-.94,1.71-1.31,2.76-1.89,5.48-3.81,8.29-5.67.49-.33,1.11-.94,1.68-1.21.97-.47.8-.05,1.28.41,2.3,2.21,4.36,4.79,7.37,6.1.52.23,1.65.14,1.46.94-.31,1.27-2.42.7-3.29,1.38-.34.26-1.08,1.3-1.16,1.73,0,5.99-.54,12.5-.16,18.46.03.49.16,1.63.36,2.03.09.18.91,1.13,1.07,1.2.37.16,1.34.13,1.76.06.89-.15,1.62-1.48,2.48-.41-1.65,1.58-3.37,3.09-5.1,4.59-1.48,1.28-3.64,3.34-5.16,4.4-.3.21-.61.4-1,.39-.36-.01-1.5-.91-1.83-1.2-1.95-1.71-3.85-4.53-4.03-7.16-.48-6.97.47-14.53,0-21.51-.1-1.43-.6-3.36-2.42-3.18-.96.1-2.6.94-3.25,1.67-.23.26-.42.54-.49.89v19.98c.05.34.11.68.26.99.22.43,1.42,1.61,1.47,1.81.32,1.15-1.71,1.36-2.29,1.69-2.72,1.53-3.57,2.65-5.42,5.02-.16.2-.43.92-.75.86-.5-.55-.9-1.2-1.4-1.76-1.48-1.65-3.47-3.17-5.39-4.17-.65-.34-2.04-.37-2.31-1.35-.18-.65,1.37-.65,1.84-.82,1.54-.55,2.3-1.65,2.4-3.26.37-5.89-.29-12.18,0-18.11-.4-1.63-1.04-3.57-3.15-3.02-.93.24-1.92,2.2-2.63.28l9.76-9.12Z"/>
    <path d="M351.95,44.29c-2.29,2.49-5.15,4.79-7.51,7.27-1.43,1.5-2.6,3.17-4.12,4.57-.2.06-1.15-.23-1.38-.33-.35-.15-.56-.43-.83-.55-4.04-1.91-9.2-4.2-13.77-2.89-.83.24-2.18,1.82-2.85,1.64-.84-.23.17-.98.34-1.25,1.46-2.3,3.19-4.56,4.53-6.92.65-1.14,1.19-2.32,1.56-3.6,0-.45-2.41-2.16-2.88-2.61-1.75-1.7-3.79-4.58-3.51-7.16.49-4.4,5.43-8.14,8.61-10.89,1.93-1.68,4.21-3.18,5.85-5.22.24-.3.41-.98.76-1.13,1.02-.46,1.04.28,1.45.68,2.83,2.79,10.05,3.82,12.04-.53.37-.8.31-3.13.04-3.99-1.6-5.03-7.95-7.26-12.82-6.52-4.99.75-8.5,2.72-9.82,7.8-.16.63.06,1.48-.76,1.73-.85-.46-.55-1.48-.46-2.31.52-4.64,4.71-6.97,8.81-8.18,1.69-.5,6.49-.48,8.19,0,6.76,1.92,9.98,5.75,9.94,12.96-.02,3.32-.91,5.52-3.27,7.8-.53.51-2.3,1.72-2.37,2.41-.1.99,2.12,1.32,2.71,1.65,1.29.72,2.63,2,3.42,3.25,2.61,4.18,1.19,8.96-1.91,12.32ZM331.41,22.71c-1.56.84-1.55,2.88-1.45,4.46.19,3.06,3.2,6.33,6.25,6.71,3.34.41,5.1-.26,7.35-2.56.96-.98,1.24-1.57,1.91-2.75.16-.29.7-.5.3-.84-.46-.39-2.24.09-2.9.13-3.72.22-7.41-1.58-10.19-3.9-.44-.37-.82-.87-1.26-1.25ZM343.47,37c-2.76-1.73-5.12-1.92-8.15-.45-1.69.82-3.99,2.95-5.04,4.52-.22.33-.23.77-.55,1.06.18.25.4.44.7.53,1.61.49,3.73.53,5.35.95,2.07.53,5.05,1.76,6.99,2.7.63.31,1.49.95,2.14,1.25.48.22.81.27,1.07-.26,1.65-3.39,1.09-7.46-1.78-9.97-.28-.24-.5-.21-.72-.35Z"/>
    <path d="M405.09,14.31c.59-.05,1.95,1.26,2.43,1.67,3.36,2.83,5.02,5.1,5.28,9.69.22,3.85.21,7.84.25,11.69.05,4.72-.74,9.61-5.79,11.31-2,.68-4.21.97-6.03,2.02-1.46.85-3.1,2.42-4.16,3.77-.61.77-.64,1.75-1.83.69-.24-.21-.35-.59-.56-.82-.49-.51-1.06-.89-1.57-1.32-3.49-2.95-7.29-5.01-11.85-5.9-1.13-.82.3-1.08.89-1.52,1.43-1.08,1.39-2.46,1.7-4.09l.03-20.59c.37-1.07,1.16-.6,1.92-.59,5.38.1,10.98-.81,15.6-3.54,1.02-.6,2.28-1.82,3.24-2.29.14-.07.3-.17.46-.18ZM395.19,20.84l-.4,1.29.03,19.85c.18.82,2.63,2.05,3.36,2.55.89.61,1.73,1.18,2.64,1.76.37.24.6.93,1.08.31l.03-21.16c-.84-2.66-3.47-4.18-6.11-4.59-.17-.03-.5-.1-.64-.01Z"/>
    <path d="M70.21,13.93c1.05.36,1.08,1.03,1.57,1.78,2.09,3.22,4.25,6.39,6.17,9.68.15.25.51.44.58.67.03.09.15,1.03.13,1.08-.09.37-.76.43-1.03.61-3.89,2.47-7.75,5.14-11.62,7.63-1.14.74-2.44,1.33-3.5,2.16-.19.42.09,1.66.27,2.11,2.15,5.23,8.02,8.28,13.3,5.29.89-.5,1.6-1.19,2.46-1.69.18-.1.29-.3.45-.43.32-.07.44.91.41,1.06-.03.14-1.79,1.62-2.05,1.83-2.96,2.42-6.14,4.6-9.19,6.92-.79.6-2.43,2.39-3.38,2.38-.21,0-.81-.15-1.03-.23-9.16-3.31-13.38-9.97-13.53-19.68-.06-4.14.72-10.57,3.78-13.59,1.85-1.82,5.17-2.82,7.52-3.81s4.7-2.27,7.09-3.23c.52-.21,1.11-.24,1.6-.55ZM62.14,20.2c-.3.23-.58.53-.58.94.33,4.35-.42,9.31,0,13.59.03.3.07.6.39.75.55.25.69-.31,1.09-.55,1.5-.89,3-1.79,4.46-2.71.68-.43,1.39-.4,1.49-1.52l-6.84-10.49Z"/>
    <path d="M160.84,3.75c.12-.02.9.12,1,.22.21.2.22.9.31,1.2l.07,14.02c.17.25.32.35.62.39,1.94.25,4.47-.27,6.41,0,.57.08.77.23.83.8.09.8.11,3.13,0,3.91-.09.65-.75.65-1.32.69-1.89.14-4.25-.25-6.05-.01-.26.03-.44.07-.54.35v18.05c.58,1.67,1.48,2.93,3.44,2.73.57-.06,2.17-.77,2.71-1.06.45-.24,1.31-1.28,1.76-.52.58.98-1.71,2.17-2.34,2.71-.98.84-1.94,1.69-2.89,2.52-2.26,1.96-4.41,4.06-6.78,5.89-.12-.01-.86-.55-.97-.67-2.22-2.42-3.82-4.51-6.96-6-.71-.34-2.98-.64-3.19-1.48-.13-.52,1.33-.59,1.69-.72.92-.33,1.79-1.4,1.9-2.38l-.05-19.16c-.06-.11-.16-.19-.28-.23-1.03-.3-3.33.35-4.24-.29-.49-.34.29-1.04.63-1.23.47-.26,1.15-.23,1.65-.49,4.6-2.42,9.49-10.28,11.08-15.09.22-.68.77-4.01,1.5-4.15Z"/>
    <path d="M307.26,14.3c.75-.2,2.09,1.82,2.63,2.36,1.81,1.82,3.79,3.16,5.97,4.47.67.41,1.34.3,1.13,1.39-.14.71-1.87.46-2.51.88-.46.31-1.23,1.47-1.36,2.04-.04,5.93-.48,12.28-.16,18.2.04.81.15,2.3.57,2.95.64.98,1.4,1.6,2.63,1.14l1.89-1.25c.76,1.05.05,1.06-.55,1.58-2.63,2.29-6.32,6-9.34,7.52-.43.22-.72.29-1.17.06-.92-.49-2.83-2.16-3.38-3.04-1.06-1.69-1.5-4.16-1.62-6.18-.41-6.86.54-14.34,0-21.13-.04-.52-.26-1.92-.71-2.18-.1-.06-.92-.34-1.01-.35-1.1-.11-2.61,1.21-3.44.01.38-1.06,1.21-1.08,1.97-1.53,2.58-1.53,5.23-3.86,7.4-5.94.16-.15.97-.96,1.04-.98Z"/>
    <path d="M133.16,14.31c.13,0,.21.05.29.15,1.08,1.33,2.31,2.47,3.58,3.6.87.76,1.77,1.62,2.79,2.24.84.51,1.96.79,2.66,1.49.39,1.7-1.25,1.05-2.19,1.41s-1.58,1.97-1.91,2.87l-.03,18.46c.36,1.5,1.14,3.9,3.16,3.28.51-.16,1.33-1.43,1.95-.96.43.32.31.66-.07.96-3,2.37-5.86,5.48-9.24,7.37-.6.34-.65.92-1.63.46-.76-.36-2.49-1.83-3.04-2.49-1.06-1.29-1.87-3.89-1.97-5.58-.44-7.43.34-15.29.01-22.77-.04-1.31-.91-2.05-2.21-1.94-.6.05-3.01.92-3.09-.07.25-1,1.55-1.21,2.26-1.64,2.06-1.24,4.75-3.49,6.56-5.14.59-.54,1.22-1.68,2.1-1.67Z"/>
    <path d="M374.49,19.85c.66.44,1.38.91,2.11,1.35.81.49,1.26.19,1.08,1.55-.05.2-1.61.31-1.9.38-1.43.37-2.18,2.16-2.26,3.52-.39,6.1.21,12.73.14,18.86.56,1.31,1.48,2.94,3.17,2.18.28-.12.38-.38.61-.52.35-.22.8-.25,1.06-.7l.42.92c-2.2,1.81-4.26,3.83-6.46,5.62-.94.77-2.52,2.01-3.6,2.57-.25.13-.75.23-1.03.18-.72-.59-1.54-1.05-2.23-1.67-2.38-2.14-2.77-4.72-2.9-7.79-.31-7.17.27-14.54-.02-21.73-.36-.94-.88-1.84-2.03-1.81-.61.02-3.23,1.24-3.11-.1.08-.86,1.32-1.11,1.86-1.43,2.19-1.3,5.11-3.62,6.97-5.37.24-.23,1.29-1.52,1.46-1.55.21-.04.8.2,1,.34.72.55,1.76,2.07,2.58,2.83.99.92,2.01,1.63,3.11,2.36Z"/>
    <path d="M131.91.11c1.55-.15,2.91-.05,4.17.91,1.54,1.17,2.48,3.74,1.86,5.62-.78,2.36-2.73,4.56-4.95,5.61-.61.29-1.14.41-1.75.02-.42-.27-1.46-1.29-1.83-1.69-1.36-1.46-3.14-4.5-2.51-6.54.72-2.31,2.61-3.69,5-3.93Z"/>
    <path d="M369.91,11.06c-.49.37-1.37,1.02-1.93,1.27-1.14.51-1.58-.05-2.4-.75-1.4-1.21-2.62-2.79-3.3-4.5-.31-.78-.38-3.1-.03-3.85,1.72-3.65,8.09-4.47,10.23-.81,1.76,3-.08,6.76-2.58,8.64Z"/>
    <path d="M306.52.11c6.5-.56,7.67,6.23,3.73,10.26-.46.47-2.15,1.64-2.73,1.92-1.23.6-2-.19-2.86-.97-2.06-1.86-3.39-4.19-3.14-7.04.21-2.4,2.78-3.99,5.01-4.18Z"/>
  </g>
</svg>